<svg xmlns="http://www.w3.org/2000/svg" xmlns:se="http://svg-edit.googlecode.com" xmlns:xlink="http://www.w3.org/1999/xlink" xmlns:dc="http://purl.org/dc/elements/1.1/" xmlns:cc="http://creativecommons.org/ns#" xmlns:rdf="http://www.w3.org/1999/02/22-rdf-syntax-ns#" xmlns:inkscape="http://www.inkscape.org/namespaces/inkscape" width="250" height="250" style="">                                    <title>my vector image</title>                                    <!-- Created with Vector Paint - http://www.vectorpaint.yaks.com/ https://chrome.google.com/webstore/detail/hnbpdiengicdefcjecjbnjnoifekhgdo -->                                    <rect id="backgroundrect" width="100%" height="100%" x="0" y="0" fill="#ffffff" stroke="none" class="" style="" fill-opacity="0"/>                                <g class="currentLayer" style=""><title>Layer 1</title><path fill="#ffffff" stroke="#6d6d6d" stroke-opacity="1" stroke-width="5" stroke-dasharray="none" stroke-linejoin="round" stroke-linecap="butt" stroke-dashoffset="" fill-rule="nonzero" opacity="1" marker-start="" marker-mid="" marker-end="" d="M3.0352817849880327,123.99999600247347 C3.0352817849880327,56.87292823817221 57.40031817776072,2.500003349088187 124.51764705772717,2.500003349088187 C191.6349759376937,2.500003349088187 246.0000123304663,56.87292823817221 246.0000123304663,123.99999600247347 C246.0000123304663,191.12706376677474 191.6349759376937,245.49998865585874 124.51764705772717,245.49998865585874 C57.40031817776072,245.49998865585874 3.0352817849880327,191.12706376677474 3.0352817849880327,123.99999600247347 z" id="svg_4" class="" fill-opacity="1"/><path fill="#04b804" fill-opacity="1" stroke="#eb1a1a" stroke-opacity="1" stroke-width="10" stroke-dasharray="none" stroke-linejoin="round" stroke-linecap="butt" stroke-dashoffset="" fill-rule="nonzero" opacity="1" marker-start="" marker-mid="" marker-end="" d="M134.43160623032688,40.68746281871385 L185.8470633640963,114.35294359543245 " id="svg_2" class=""/><path fill="#6d6d6d" fill-opacity="1" stroke="#eb1a1a" stroke-opacity="1" stroke-width="10" stroke-dasharray="none" stroke-linejoin="round" stroke-linecap="butt" stroke-dashoffset="" fill-rule="nonzero" opacity="1" marker-start="" marker-mid="" marker-end="" d="M187.1182711723668,121.34317007355936 L86.27331259441074,188.57658201907205 " class="" id="svg_6"/><path fill="#0b0bd5" fill-opacity="1" stroke="#0b0bd5" stroke-opacity="1" stroke-width="2" stroke-dasharray="none" stroke-linejoin="round" stroke-linecap="butt" stroke-dashoffset="" fill-rule="nonzero" opacity="1" marker-start="" marker-mid="" marker-end="" d="M159.74999739484088,119.58333145764183 C159.74999739484088,102.73250200870285 173.39916924848143,89.08333015506227 190.24999869742044,89.08333015506227 C207.10082814635945,89.08333015506227 220.75,102.73250200870285 220.75,119.58333145764183 C220.75,136.43416090658084 207.10082814635945,150.0833327602214 190.24999869742044,150.0833327602214 C173.39916924848143,150.0833327602214 159.74999739484088,136.43416090658084 159.74999739484088,119.58333145764183 z" id="svg_3" class=""/><path fill="#ff7817" fill-opacity="1" stroke="#ff7817" stroke-opacity="1" stroke-width="2" stroke-dasharray="none" stroke-linejoin="round" stroke-linecap="butt" stroke-dashoffset="" fill-rule="nonzero" opacity="1" marker-start="" marker-mid="" marker-end="" d="M60.08333319436551,191.91666106468932 C60.08333319436551,179.62384314186863 70.04051571185019,169.66666062438406 82.33333363467077,169.66666062438406 C94.62615155749128,169.66666062438406 104.58333407497602,179.62384314186863 104.58333407497602,191.91666106468932 C104.58333407497602,204.2094789875099 94.62615155749128,214.16666150499458 82.33333363467077,214.16666150499458 C70.04051571185019,214.16666150499458 60.08333319436551,204.2094789875099 60.08333319436551,191.91666106468932 z" id="svg_5" class=""/><path fill="#000000" fill-opacity="1" stroke="#000000" stroke-opacity="1" stroke-width="2" stroke-dasharray="none" stroke-linejoin="round" stroke-linecap="butt" stroke-dashoffset="" fill-rule="nonzero" opacity="1" marker-start="" marker-mid="" marker-end="" d="M122.23232717627758,38.15909122129084 C122.23232717627758,32.17522011520236 127.1911431177551,27.32828451927064 133.313138107234,27.32828451927064 C139.4351330967129,27.32828451927064 144.3939490381904,32.17522011520236 144.3939490381904,38.15909122129084 C144.3939490381904,44.14296232737932 139.4351330967129,48.98989792331104 133.313138107234,48.98989792331104 C127.1911431177551,48.98989792331104 122.23232717627758,44.14296232737932 122.23232717627758,38.15909122129084 z" class="" id="svg_7"/></g></svg>